<svg xmlns="http://www.w3.org/2000/svg" viewBox="-15 -15 911.02 601.05">
  <defs>
    <style>
      a{
        cursor: pointer
      }
      path{
        opacity: 0.5;
        fill: #fff;
        filter: drop-shadow(0 0 4px rgba(100,100,100,.5));
        transition: opacity .4s;
      }
      a:hover path{
        opacity: .8;
      }
      text, tspan{
        text-anchor: middle;
        font-size: 24px;
        font-family: Montserrat;
      }
      circle{
        display: none;
        fill: none;
        stroke: #e0e0e0;
        stroke-miterlimit: 10;
      }

    </style>
  </defs>
  <title>six-pentagons</title>
    <a class="" transform="translate(-12, 0)">
      <path class="" d="M230.47,292.18,150,402.88a11,11,0,0,1-12.3,4L7.6,364.59A11,11,0,0,1,0,354.12V217.29a11,11,0,0,1,7.6-10.46l130.14-42.29a11,11,0,0,1,12.3,4l80.43,110.7A11,11,0,0,1,230.47,292.18Z"/>
      <text x="0" transform="translate(104.81, -36)" y="285.5">
        <tspan x="0" dy="1.2em">
          Interstellar
        </tspan>
        <tspan x="0" dy="1.2em">
          Dust
        </tspan>
      </text>
      <!-- <circle class="cls-3" cx="104.81" cy="285.5" r="7"/> -->
    </a>
    <a class="" transform="translate(12, 0)">
      <path class="" d="M731,402.87l-80.42-110.7a11,11,0,0,1,0-12.94L731,168.54a11,11,0,0,1,12.3-4l130.14,42.28a11,11,0,0,1,7.6,10.46V354.12a11,11,0,0,1-7.6,10.47L743.28,406.87A11,11,0,0,1,731,402.87Z"/>
      <text x="0" transform="translate(776.55, -36)" y="284.98">
        <tspan x="0" dy="1.2em">
          Grain
        </tspan>
        <tspan x="0" dy="1.2em">
          Alignment
        </tspan>
      </text>
      <circle class="cls-3" cx="776.55" cy="284.98" r="7"/>
    </a>
    <a class="">
      <path class="" d="M701,128.18l-80.43,110.7a11,11,0,0,1-12.3,4L478.1,200.59a11,11,0,0,1-7.6-10.47V53.29a11,11,0,0,1,7.6-10.46L608.24.54a11,11,0,0,1,12.3,4L701,115.24A11,11,0,0,1,701,128.18Z"/>
      <text x="0" transform="translate(574.81, -36)" y="123.5">
        <tspan x="0" dy="1.2em">
          CMB
        </tspan>
        <tspan x="0" dy="1.2em">
          Polarization
        </tspan>
       </text>
      <circle class="cls-3" cx="574.81" cy="123.5" r="7"/>
    </a>
    <a class="">
      <path class="" d="M608.24,570.51,478.1,528.22a11,11,0,0,1-7.6-10.46V380.93a11,11,0,0,1,7.6-10.47l130.14-42.29a11,11,0,0,1,12.3,4L701,442.87a11,11,0,0,1,0,12.94l-80.43,110.7A11,11,0,0,1,608.24,570.51Z"/>
      <text x="0" transform="translate(574.81, -36)" y="449.5">
        <tspan x="0" dy="1.2em">
          Interstellar
        </tspan>
        <tspan x="0" dy="1.2em">
          Matter
        </tspan>
      </text>
      <circle class="cls-3" cx="574.81" cy="449.5" r="7"/>
    </a>
    <a class="">
      <path class="" d="M410.52,380.93V517.77a11,11,0,0,1-7.6,10.46L272.78,570.51a11,11,0,0,1-12.3-4L180.05,455.82a11,11,0,0,1,0-12.94l80.42-110.7a11,11,0,0,1,12.31-4l130.14,42.28A11,11,0,0,1,410.52,380.93Z"/>
      <text x="0" transform="translate(306.36, -36)" y="448.6">
        <tspan x="0" dy="1.2em">
          Magnetic
        </tspan>
        <tspan x="0" dy="1.2em">
          Fields
        </tspan>
       </text>
      <circle class="cls-3" cx="306.36" cy="448.6" r="7"/>
    </a>
    <a class="">
      <path class="" d="M260.47,238.87l-80.42-110.7a11,11,0,0,1,0-12.94L260.48,4.54a11,11,0,0,1,12.3-4L402.92,42.82a11,11,0,0,1,7.6,10.46V190.12a11,11,0,0,1-7.6,10.47L272.78,242.87A11,11,0,0,1,260.47,238.87Z"/>
      <text x="0" transform="translate(306.36, -36)" y="122.6">
        <tspan x="0" dy="1.2em">
          Dust
        </tspan>
        <tspan x="0" dy="1.2em">
          Polarization
        </tspan>
      </text>
      <circle class="cls-3" cx="306.36" cy="122.6" r="7"/>
    </a>
</svg>
